<svg width="120" height="120" viewBox="0 0 120 120" fill="none" xmlns="http://www.w3.org/2000/svg">
<path d="M6.66333 41.4207C2.22111 41.4207 0 39.1596 0 34.6373V20.1701C0 13.6068 1.72086 8.6043 5.16258 5.16258C8.64432 1.72086 13.7069 0 20.3502 0H34.8174C39.3397 0 41.6008 2.22111 41.6008 6.66333C41.6008 11.1456 39.3397 13.3867 34.8174 13.3867H21.4307C18.7894 13.3867 16.7684 14.067 15.3677 15.4277C14.007 16.7484 13.3267 18.7894 13.3267 21.5508V34.6373C13.3267 39.1596 11.1056 41.4207 6.66333 41.4207ZM113.277 41.4207C108.834 41.4207 106.613 39.1596 106.613 34.6373V21.5508C106.613 18.7894 105.913 16.7484 104.512 15.4277C103.112 14.067 101.111 13.3867 98.5093 13.3867H85.1226C80.6403 13.3867 78.3992 11.1456 78.3992 6.66333C78.3992 2.22111 80.6403 0 85.1226 0H99.6498C106.293 0 111.336 1.72086 114.777 5.16258C118.259 8.6043 120 13.6068 120 20.1701V34.6373C120 39.1596 117.759 41.4207 113.277 41.4207ZM20.3502 120C13.7069 120 8.64432 118.279 5.16258 114.837C1.72086 111.396 0 106.393 0 99.8299V85.3027C0 80.8204 2.22111 78.5793 6.66333 78.5793C11.1056 78.5793 13.3267 80.8204 13.3267 85.3027V98.4492C13.3267 101.211 14.007 103.252 15.3677 104.572C16.7684 105.933 18.7894 106.613 21.4307 106.613H34.8174C39.3397 106.613 41.6008 108.854 41.6008 113.337C41.6008 117.779 39.3397 120 34.8174 120H20.3502ZM85.1226 120C80.6403 120 78.3992 117.779 78.3992 113.337C78.3992 108.854 80.6403 106.613 85.1226 106.613H98.5093C101.111 106.613 103.112 105.933 104.512 104.572C105.913 103.252 106.613 101.211 106.613 98.4492V85.3027C106.613 80.8204 108.834 78.5793 113.277 78.5793C117.759 78.5793 120 80.8204 120 85.3027V99.8299C120 106.393 118.259 111.396 114.777 114.837C111.336 118.279 106.293 120 99.6498 120H85.1226ZM37.6388 56.008C36.1981 56.008 34.9975 55.5478 34.037 54.6273C33.0765 53.6668 32.5963 52.4262 32.5963 50.9055V42.5013C32.5963 41.0205 33.0765 39.7999 34.037 38.8394C34.9975 37.8789 36.1981 37.3987 37.6388 37.3987C39.1196 37.3987 40.3402 37.8789 41.3007 38.8394C42.3012 39.7999 42.8014 41.0205 42.8014 42.5013V50.9055C42.8014 52.4262 42.3012 53.6668 41.3007 54.6273C40.3402 55.5478 39.1196 56.008 37.6388 56.008ZM55.2276 70.055C53.6268 70.055 52.3662 69.6548 51.4457 68.8544C50.5253 68.054 50.065 66.9535 50.065 65.5528C50.065 64.3522 50.4652 63.3517 51.2656 62.5513C52.1061 61.7109 53.1266 61.2906 54.3272 61.2906H56.008C56.2481 61.2906 56.4482 61.2306 56.6083 61.1106C56.7684 60.9905 56.8484 60.7904 56.8484 60.5103V41.6008C56.8484 40.3202 57.2486 39.2997 58.049 38.5393C58.8494 37.7389 59.8899 37.3387 61.1706 37.3387C62.4512 37.3387 63.4917 37.7389 64.2921 38.5393C65.0926 39.2997 65.4928 40.3202 65.4928 41.6008V60.3302C65.4928 63.4917 64.6523 65.913 62.9715 67.5938C61.2906 69.2346 58.8894 70.055 55.7679 70.055C55.6478 70.055 55.5478 70.055 55.4677 70.055C55.3877 70.055 55.3077 70.055 55.2276 70.055ZM82.1811 56.008C80.6603 56.008 79.4197 55.5478 78.4592 54.6273C77.4987 53.6668 77.0185 52.4262 77.0185 50.9055V42.5013C77.0185 41.0205 77.4987 39.7999 78.4592 38.8394C79.4197 37.8789 80.6603 37.3987 82.1811 37.3987C83.6218 37.3987 84.8224 37.8789 85.7829 38.8394C86.7434 39.7999 87.2236 41.0205 87.2236 42.5013V50.9055C87.2236 52.4262 86.7434 53.6668 85.7829 54.6273C84.8224 55.5478 83.6218 56.008 82.1811 56.008ZM59.6698 89.5648C55.908 89.5648 52.2261 88.8444 48.6243 87.4037C45.0625 85.923 42.1011 83.8219 39.7399 81.1006C39.2997 80.5803 38.9795 80.08 38.7794 79.5998C38.5793 79.0795 38.4792 78.5393 38.4792 77.979C38.4792 76.7384 38.8995 75.7179 39.7399 74.9175C40.5803 74.077 41.6008 73.6568 42.8014 73.6568C43.5618 73.6568 44.2021 73.8169 44.7224 74.1371C45.2426 74.4572 45.7629 74.8774 46.2831 75.3977C48.004 77.1186 50.045 78.4792 52.4062 79.4797C54.7674 80.4802 57.1886 80.9805 59.6698 80.9805C62.2311 80.9805 64.7124 80.4802 67.1136 79.4797C69.5148 78.4392 71.4958 77.0985 73.0565 75.4577C74.1771 74.2571 75.3177 73.6568 76.4782 73.6568C77.6788 73.6568 78.6994 74.077 79.5398 74.9175C80.3802 75.7179 80.8004 76.7384 80.8004 77.979C80.8004 78.6593 80.7004 79.2596 80.5003 79.7799C80.3002 80.3002 80 80.7604 79.5998 81.1606C76.9585 83.8019 73.8769 85.8629 70.3552 87.3437C66.8734 88.8244 63.3117 89.5648 59.6698 89.5648Z" fill="#F4F4F7"/>
</svg>
