<svg width="71" height="32" viewBox="0 0 71 32" fill="none" xmlns="http://www.w3.org/2000/svg">
<g clip-path="url(#clip0_1_2825)">
<path fill-rule="evenodd" clip-rule="evenodd" d="M24.3898 0L21.2033 3.00675V8.00208C21.2033 8.06857 21.2344 8.13299 21.2882 8.17247L26.1384 11.7901L24.6343 12.9122L22.3449 14.668L19.4443 12.6005C19.3034 12.5008 19.2205 12.3387 19.2205 12.1662V3.12935C19.2205 3.05247 19.2599 2.9839 19.3262 2.94442L24.3898 0ZM35.1364 12.6836L31.1191 15.547L31.1274 15.5532L28.5583 17.3839L27.3546 18.267L27.3463 18.2608L21.4125 22.6203C21.3587 22.6597 21.3255 22.7242 21.3255 22.7927V28.4551C21.3255 28.5091 21.3462 28.561 21.3815 28.6005L24.3877 31.8649L19.2806 28.6026C19.2184 28.5631 19.1832 28.4966 19.1832 28.4239V19.227C19.1832 19.0275 19.2765 18.8405 19.4339 18.72L25.5065 14.0634L33.2925 8.25558C33.3464 8.2161 33.3774 8.15169 33.3774 8.08519V3.08987L30.1909 0.0831169L35.2545 3.02753C35.3208 3.06493 35.3602 3.13558 35.3602 3.21247V12.2514C35.3602 12.4239 35.2773 12.586 35.1364 12.6857V12.6836ZM32.3332 16.4779L29.4078 18.5642L28.5832 19.1709L33.1703 22.5392C33.2241 22.5787 33.2573 22.6431 33.2573 22.7117V28.374C33.2573 28.4281 33.2366 28.48 33.2013 28.5195L30.193 31.7839L35.3001 28.5216C35.3602 28.4821 35.3975 28.4156 35.3975 28.3429V19.146C35.3975 18.9465 35.3043 18.7595 35.1468 18.639L32.3332 16.4821V16.4779ZM61.6229 24.6691C56.2009 24.6691 52.83 23.1397 52.0116 19.5283L55.0117 18.1486H55.194C55.4095 20.8852 57.7651 21.9927 61.768 21.9927C65.4807 21.9927 67.2708 21.174 67.2708 19.3891C67.2708 18.2192 66.5974 17.6893 64.652 17.3403C63.8066 17.1886 62.6402 17.0888 61.3867 16.9787C59.7313 16.8353 57.9205 16.6774 56.493 16.3761C53.982 15.8587 52.5027 14.641 52.5027 12.0727C52.5027 8.67325 55.5793 6.85506 60.8543 6.85506C65.404 6.85506 68.3461 8.0187 69.5664 10.479L66.2701 11.3558C65.3916 10.0758 63.527 9.5439 60.732 9.5439C57.5828 9.5439 55.9378 10.3148 55.9378 11.7984C55.9378 12.8956 56.5386 13.4255 58.5338 13.7745C59.4185 13.9345 60.6554 14.0488 61.9731 14.1673C63.6243 14.319 65.402 14.481 66.7652 14.7616C69.2038 15.2686 70.6955 16.4966 70.6955 19.0753C70.6955 22.8364 67.2459 24.667 61.6229 24.667V24.6691ZM15.7771 20.1891L17.7226 24.1496V16.9247L12.7253 7.06493H8.7349L0 24.3242H3.50971L5.54012 20.1912H15.7792L15.7771 20.1891ZM6.83709 17.5501H14.4926L10.6721 9.75169L6.83916 17.5501H6.83709ZM36.7836 12.0706L41.4991 17.9242V24.3242H44.8762V17.9242L53.6732 7.06493H49.7554L43.2664 15.2727L36.7898 7.06493H36.7856V12.0706H36.7836Z" fill="#F4F4F7"/>
</g>
<defs>
<clipPath id="clip0_1_2825">
<rect width="70.8571" height="32" fill="white"/>
</clipPath>
</defs>
</svg>
